<?xml version="1.0" encoding="UTF-8"?>
<svg width="1200px" height="870px" viewBox="0 0 1200 870" version="1.1" xmlns="http://www.w3.org/2000/svg" xmlns:xlink="http://www.w3.org/1999/xlink">
    <!-- Generator: Sketch 43.2 (39069) - http://www.bohemiancoding.com/sketch -->
    <title>Group</title>
    <desc>Created with Sketch.</desc>
    <defs></defs>
    <g id="Page-1" stroke="none" stroke-width="1" fill="none" fill-rule="evenodd">
        <g id="Group" transform="translate(0.062500, 0.031250)">
            <g id="Group-19" transform="translate(750.013934, 0.129716)">
                <g id="Group-16" transform="translate(0.866496, 103.682984)" fill="#777B83">
                    <polygon id="Polygon-3" points="89.9236417 0.115349603 179.555682 51.8644325 179.555682 155.362598 89.9236417 207.111681 0.291600923 155.362598 0.291600923 51.8644325"></polygon>
                    <polygon id="Polygon-3" points="89.9236417 103.613515 179.555682 155.362598 179.555682 258.860764 89.9236417 310.609847 0.291600923 258.860764 0.291600923 155.362598"></polygon>
                    <polygon id="Polygon-3" points="89.9236417 207.111681 179.555682 258.860764 179.555682 362.35893 89.9236417 414.108012 0.291600923 362.35893 0.291600923 258.860764"></polygon>
                </g>
                <g id="Group-18" transform="translate(371.846853, 303.097394)" fill="#383A3F">
                    <polygon id="Polygon-3" points="38.5449069 0.00597479795 76.9586386 22.1841532 76.9586386 66.5405099 38.5449069 88.7186883 0.131175115 66.5405099 0.131175115 22.1841532"></polygon>
                    <polygon id="Polygon-3" points="38.5449069 44.3623315 76.9586386 66.5405099 76.9586386 110.896867 38.5449069 133.075045 0.131175115 110.896867 0.131175115 66.5405099"></polygon>
                    <polygon id="Polygon-3" points="38.5449069 88.7186883 76.9586386 110.896867 76.9586386 155.253223 38.5449069 177.431402 0.131175115 155.253223 0.131175115 110.896867"></polygon>
                </g>
                <path d="M372.49978,324.996759 L410.938632,302.804077 L449.377484,324.996759 L372.49978,324.996759 Z M372.49978,324.996759 L449.377484,324.996759 L410.938632,347.18944 L372.49978,324.996759 Z" id="Combined-Shape" fill="#FFFFFF" opacity="0.203125" style="mix-blend-mode: overlay;"></path>
                <g id="Group-17" transform="translate(282.233515, 221.610521)" fill="#777B83">
                    <polygon id="Polygon-3" points="64.1302648 0.173616207 128.153151 37.1372468 128.153151 111.064508 64.1302648 148.028139 0.10737856 111.064508 0.10737856 37.1372468"></polygon>
                    <polygon id="Polygon-3" points="64.1302648 74.1008774 128.153151 111.064508 128.153151 184.991769 64.1302648 221.9554 0.10737856 184.991769 0.10737856 111.064508"></polygon>
                    <polygon id="Polygon-3" points="64.1302648 148.028139 128.153151 184.991769 128.153151 258.91903 64.1302648 295.882661 0.10737856 258.91903 0.10737856 184.991769"></polygon>
                </g>
                <path d="M0.144280941,155.366624 L90.2797227,103.326903 L180.415165,155.366624 L0.144280941,155.366624 Z M0.144280941,155.366624 L180.415165,155.366624 L90.2797227,207.406346 L0.144280941,155.366624 Z" id="Combined-Shape" fill="#FFFFFF" opacity="0.203125" style="mix-blend-mode: overlay;"></path>
                <path d="M281.696244,258.75194 L346.027069,221.610521 L410.357894,258.75194 L281.696244,258.75194 Z M281.696244,258.75194 L410.357894,258.75194 L346.027069,295.893359 L281.696244,258.75194 Z" id="Combined-Shape" fill="#FFFFFF" opacity="0.203125" style="mix-blend-mode: overlay;"></path>
                <polygon id="Polygon-3" fill="#383A3F" points="218.325495 0.00200409544 346.371268 73.9292653 346.371268 221.783788 218.325495 295.711049 90.2797227 221.783788 90.2797227 73.9292653"></polygon>
                <polygon id="Polygon-3" fill="#383A3F" points="218.325495 147.856527 346.371268 221.783788 346.371268 369.63831 218.325495 443.565571 90.2797227 369.63831 90.2797227 221.783788"></polygon>
                <polygon id="Polygon-3" fill="#383A3F" points="218.325495 295.711049 346.371268 369.63831 346.371268 517.492833 218.325495 591.420094 90.2797227 517.492833 90.2797227 369.63831"></polygon>
                <path d="M90.2797227,73.9292653 L218.325495,0.00200409544 L346.371268,73.9292653 L90.2797227,73.9292653 Z M90.2797227,73.9292653 L346.371268,73.9292653 L218.325495,147.856527 L90.2797227,73.9292653 Z" id="Combined-Shape" fill="#FFFFFF" opacity="0.203125" style="mix-blend-mode: overlay;"></path>
            </g>
            <g id="Group-20" transform="translate(0.083730, 551.607056)" fill="#383A3F">
                <path d="M175.81151,237.35677 C175.81151,264.301973 168.183943,284.395423 152.928581,297.637724 C137.673219,310.880025 115.72213,317.501076 87.0746555,317.501076 C77.99131,317.501076 68.8498751,316.579886 59.6500765,314.737479 C50.4502779,312.895072 42.065777,309.786057 34.4963225,305.41034 C26.9268679,301.034623 20.5802666,295.277187 15.4563281,288.13786 C10.3323897,280.998533 7.30465326,272.247231 6.37302808,261.883691 L46.1998052,261.883691 C47.3643367,267.410912 49.3440105,271.901712 52.138886,275.356225 C54.9337616,278.810738 58.2526265,281.516733 62.0955803,283.474291 C65.9385342,285.431848 70.1890103,286.698484 74.8471362,287.274236 C79.5052621,287.849988 84.3962209,288.13786 89.5201593,288.13786 C105.590694,288.13786 117.352285,284.222804 124.805286,276.392574 C132.258288,268.562344 135.984733,257.27777 135.984733,242.538514 L135.984733,215.247996 L135.286017,215.247996 C129.696266,225.150934 122.0687,232.865898 112.403088,238.393119 C102.737477,243.92034 92.3150768,246.683909 81.1355747,246.683909 C66.6953844,246.683909 54.4097617,244.208212 44.2783379,239.256743 C34.1469141,234.305274 25.7624133,227.5115 19.1245839,218.875217 C12.4867545,210.238934 7.65402143,200.27857 4.62623961,188.993827 C1.59845779,177.709084 0.0845895847,165.618469 0.0845895847,152.721619 C0.0845895847,140.745974 1.94781199,129.346251 5.67431269,118.52211 C9.4008134,107.697968 14.7575778,98.1981995 21.7447666,90.0225183 C28.7319555,81.846837 37.2911334,75.3409348 47.4225572,70.5046163 C57.553981,65.6682978 69.0244439,63.2501748 81.8342901,63.2501748 C93.2466985,63.2501748 103.727324,65.6107234 113.276483,70.3318915 C122.825641,75.0530595 130.162079,82.4801515 135.286017,92.6133902 L135.984733,92.6133902 L135.984733,68.0864691 L175.81151,68.0864691 L175.81151,237.35677 Z M87.4240132,215.593446 C96.2744523,215.593446 103.785568,213.80864 109.957584,210.238977 C116.129601,206.669313 121.137011,201.948216 124.979965,196.075543 C128.822919,190.202871 131.617753,183.524246 133.36455,176.039467 C135.111347,168.554688 135.984733,161.012448 135.984733,153.412519 C135.984733,145.81259 135.053121,138.443072 133.189871,131.303745 C131.326621,124.164417 128.473561,117.831238 124.630608,112.304017 C120.787654,106.776796 115.780244,102.401145 109.608227,99.1769325 C103.43621,95.9527202 96.0415461,94.3406382 87.4240132,94.3406382 C78.573574,94.3406382 71.1206844,96.1830176 65.0651207,99.8678317 C59.0095571,103.552646 54.1185983,108.331317 50.3920976,114.20399 C46.6655969,120.076662 43.9872147,126.755288 42.3568706,134.240066 C40.7265265,141.724845 39.9113667,149.151937 39.9113667,156.521565 C39.9113667,163.891193 40.8429779,171.087988 42.7062283,178.112165 C44.5694786,185.136341 47.422538,191.411946 51.2654918,196.939167 C55.1084457,202.466389 59.9994045,206.957188 65.938515,210.411702 C71.8776255,213.866215 79.0393866,215.593446 87.4240132,215.593446 Z M298.785418,251.520203 C284.345228,251.520203 271.477348,249.159655 260.181393,244.438487 C248.885438,239.717319 239.336423,233.211416 231.534062,224.920585 C223.731701,216.629753 217.79268,206.726964 213.71682,195.211919 C209.64096,183.696875 207.60306,171.030517 207.60306,157.212464 C207.60306,143.624712 209.64096,131.073503 213.71682,119.558459 C217.79268,108.043415 223.731701,98.1406252 231.534062,89.8497935 C239.336423,81.5589618 248.885438,75.0530595 260.181393,70.3318915 C271.477348,65.6107234 284.345228,63.2501748 298.785418,63.2501748 C313.225608,63.2501748 326.093488,65.6107234 337.389443,70.3318915 C348.685399,75.0530595 358.234414,81.5589618 366.036774,89.8497935 C373.839135,98.1406252 379.778157,108.043415 383.854017,119.558459 C387.929877,131.073503 389.967776,143.624712 389.967776,157.212464 C389.967776,171.030517 387.929877,183.696875 383.854017,195.211919 C379.778157,206.726964 373.839135,216.629753 366.036774,224.920585 C358.234414,233.211416 348.685399,239.717319 337.389443,244.438487 C326.093488,249.159655 313.225608,251.520203 298.785418,251.520203 Z M298.785418,220.42974 C307.635857,220.42974 315.32165,218.58736 321.843026,214.902546 C328.364402,211.217732 333.721167,206.381486 337.91348,200.393663 C342.105793,194.405841 345.191755,187.669641 347.171459,180.184862 C349.151162,172.700084 350.140999,165.042694 350.140999,157.212464 C350.140999,149.612535 349.151162,142.01272 347.171459,134.412791 C345.191755,126.812862 342.105793,120.076662 337.91348,114.20399 C333.721167,108.331317 328.364402,103.552646 321.843026,99.8678317 C315.32165,96.1830176 307.635857,94.3406382 298.785418,94.3406382 C289.934979,94.3406382 282.249187,96.1830176 275.72781,99.8678317 C269.206434,103.552646 263.84967,108.331317 259.657356,114.20399 C255.465043,120.076662 252.379081,126.812862 250.399378,134.412791 C248.419674,142.01272 247.429837,149.612535 247.429837,157.212464 C247.429837,165.042694 248.419674,172.700084 250.399378,180.184862 C252.379081,187.669641 255.465043,194.405841 259.657356,200.393663 C263.84967,206.381486 269.206434,211.217732 275.72781,214.902546 C282.249187,218.58736 289.934979,220.42974 298.785418,220.42974 Z M404.990157,68.0864691 L435.034919,68.0864691 L435.034919,14.5417821 L474.861696,14.5417821 L474.861696,68.0864691 L510.845539,68.0864691 L510.845539,97.4496846 L474.861696,97.4496846 L474.861696,192.793772 C474.861696,196.939188 475.036373,200.508798 475.385733,203.50271 C475.735092,206.496621 476.550252,209.029893 477.831237,211.102601 C479.112221,213.175309 481.033669,214.729816 483.595639,215.76617 C486.157608,216.802524 489.65115,217.320693 494.076369,217.320693 C496.871245,217.320693 499.666079,217.263119 502.460954,217.147969 C505.25583,217.032818 508.050663,216.629798 510.845539,215.938895 L510.845539,246.338459 C506.420319,246.799061 502.111617,247.259656 497.919304,247.720258 C493.726991,248.180859 489.418289,248.411157 484.993069,248.411157 C474.512286,248.411157 466.06956,247.432393 459.664636,245.474835 C453.259713,243.517278 448.252303,240.63856 444.642256,236.838595 C441.032208,233.038631 438.586729,228.259959 437.305744,222.502437 C436.024759,216.744915 435.267825,210.181439 435.034919,202.811811 L435.034919,97.4496846 L404.990157,97.4496846 L404.990157,68.0864691 Z M539.49287,0.0328992043 L579.319647,0.0328992043 L579.319647,91.5770415 L580.018362,91.5770415 C584.909394,83.5165106 592.187607,76.7803109 601.853218,71.3682402 C611.518829,65.9561696 622.290584,63.2501748 634.168805,63.2501748 C653.96584,63.2501748 669.570327,68.3167182 680.982736,78.4499569 C692.395144,88.5831957 698.101263,103.782826 698.101263,124.049303 L698.101263,246.683909 L658.274486,246.683909 L658.274486,134.412791 C657.808673,120.364437 654.780937,110.173776 649.191186,103.840502 C643.601435,97.5072278 634.86758,94.3406382 622.989359,94.3406382 C616.235076,94.3406382 610.179603,95.5496997 604.822758,97.9678589 C599.465914,100.386018 594.924309,103.725331 591.197808,107.985897 C587.471308,112.246463 584.560023,117.255432 582.463866,123.012954 C580.367709,128.770476 579.319647,134.873358 579.319647,141.321783 L579.319647,246.683909 L539.49287,246.683909 L539.49287,0.0328992043 Z M891.296068,206.957206 C891.296068,211.793524 891.936551,215.247986 893.217535,217.320693 C894.49852,219.393401 897.002225,220.42974 900.728726,220.42974 L904.921018,220.42974 C906.551362,220.42974 908.414584,220.199442 910.510741,219.738841 L910.510741,247.029359 C909.113303,247.48996 907.308307,248.008129 905.095697,248.583882 C902.883087,249.159634 900.612285,249.677803 898.283222,250.138405 C895.954159,250.599007 893.625131,250.944453 891.296068,251.174754 C888.967005,251.405055 886.987331,251.520203 885.356987,251.520203 C877.205267,251.520203 870.451086,249.908121 865.094241,246.683909 C859.737396,243.459697 856.243854,237.81741 854.61351,229.756879 C846.694696,237.356808 836.971004,242.883946 825.442142,246.338459 C813.913281,249.792973 802.792172,251.520203 792.078483,251.520203 C783.926762,251.520203 776.124519,250.42629 768.671517,248.238432 C761.218516,246.050574 754.639012,242.82641 748.932807,238.565843 C743.226603,234.305277 738.684999,228.893288 735.307857,222.329713 C731.930716,215.766137 730.242171,208.108748 730.242171,199.357315 C730.242171,188.302872 732.28007,179.321273 736.35593,172.412246 C740.431791,165.50322 745.788555,160.09123 752.426384,156.176115 C759.064214,152.261 766.517103,149.439857 774.785277,147.7126 C783.05345,145.985344 791.379725,144.661134 799.764352,143.73993 C806.984447,142.358125 813.85508,141.379361 820.376456,140.803609 C826.897832,140.227856 832.662176,139.249092 837.669662,137.867287 C842.677147,136.485482 846.636495,134.355231 849.547823,131.47647 C852.459152,128.597708 853.914795,124.279632 853.914795,118.52211 C853.914795,113.45549 852.692055,109.310137 850.246539,106.085924 C847.801023,102.861712 844.773286,100.386015 841.163239,98.6587581 C837.553191,96.9315015 833.535618,95.7800144 829.110398,95.2042622 C824.685179,94.62851 820.492928,94.3406382 816.533521,94.3406382 C805.354019,94.3406382 796.154359,96.6436125 788.934263,101.24963 C781.714168,105.855648 777.638369,112.994868 776.706744,122.667505 L736.879967,122.667505 C737.578686,111.152461 740.373519,101.595118 745.264552,93.9951886 C750.155584,86.3952596 756.385734,80.2923778 763.955188,75.6863602 C771.524643,71.0803426 780.083821,67.8561786 789.632979,66.0137715 C799.182137,64.1713645 808.964054,63.2501748 818.979025,63.2501748 C827.829464,63.2501748 836.563319,64.1713645 845.180852,66.0137715 C853.798385,67.8561786 861.542403,70.8500451 868.413139,74.995461 C875.283875,79.1408768 880.815316,84.495292 885.007629,91.0588671 C889.199943,97.6224422 891.296068,105.625278 891.296068,115.067614 L891.296068,206.957206 Z M851.469291,157.212464 C845.413727,161.127579 837.960837,163.488128 829.110398,164.294181 C820.259959,165.100234 811.409653,166.309295 802.559213,167.921402 C798.3669,168.612304 794.291101,169.591068 790.331694,170.857723 C786.372287,172.124378 782.878745,173.851609 779.850963,176.039467 C776.823182,178.227325 774.435928,181.106043 772.689131,184.675707 C770.942333,188.245371 770.068948,192.563447 770.068948,197.630067 C770.068948,202.005783 771.349913,205.690542 773.911883,208.684454 C776.473852,211.678365 779.559814,214.038914 783.169861,215.76617 C786.779909,217.493427 790.739257,218.702488 795.048023,219.393391 C799.35679,220.084294 803.257911,220.42974 806.751506,220.42974 C811.176725,220.42974 815.951233,219.853996 821.075171,218.702492 C826.19911,217.550987 831.031843,215.593459 835.573516,212.829849 C840.115188,210.066238 843.899859,206.554202 846.927641,202.293636 C849.955422,198.03307 851.469291,192.793803 851.469291,186.57568 L851.469291,157.212464 Z M934.267064,68.0864691 L971.997695,68.0864691 L971.997695,92.9588398 L973.045768,92.9588398 C976.07355,88.5831231 979.334189,84.5529182 982.827784,80.8681041 C986.321378,77.18329 990.2225,74.0742747 994.531267,71.540965 C998.840033,69.0076554 1003.78922,66.9925529 1009.37897,65.4955972 C1014.96872,63.9986414 1021.37355,63.2501748 1028.59364,63.2501748 C1039.54024,63.2501748 1049.72974,65.6682978 1059.16244,70.5046163 C1068.59514,75.3409348 1075.2911,82.8256011 1079.25051,92.9588398 C1086.00479,83.7468046 1093.80703,76.4924357 1102.65747,71.1955155 C1111.50791,65.8985952 1122.5708,63.2501748 1135.84645,63.2501748 C1154.94477,63.2501748 1169.79232,67.8561233 1180.38956,77.0681585 C1190.9868,86.2801938 1196.28534,101.710121 1196.28534,123.358404 L1196.28534,246.683909 L1156.45856,246.683909 L1156.45856,142.358132 C1156.45856,135.218804 1156.22566,128.712902 1155.75984,122.84023 C1155.29403,116.967557 1153.95484,111.901014 1151.74223,107.640448 C1149.52962,103.379881 1146.21075,100.098143 1141.78553,97.7951341 C1137.36032,95.4921253 1131.30484,94.3406382 1123.61893,94.3406382 C1110.11037,94.3406382 1100.32845,98.4859919 1094.27289,106.776824 C1088.21732,115.067655 1085.18959,126.812824 1085.18959,142.012682 L1085.18959,246.683909 L1045.36281,246.683909 L1045.36281,131.994644 C1045.36281,119.558396 1043.09201,110.173776 1038.55034,103.840502 C1034.00866,97.5072278 1025.68239,94.3406382 1013.57126,94.3406382 C1008.44732,94.3406382 1003.49814,95.3769766 998.723559,97.4496846 C993.94898,99.5223925 989.756729,102.516259 986.146682,106.431374 C982.536634,110.346489 979.625349,115.182735 977.41274,120.940257 C975.20013,126.697779 974.093841,133.261256 974.093841,140.630884 L974.093841,246.683909 L934.267064,246.683909 L934.267064,68.0864691 Z" id="gotham"></path>
            </g>
        </g>
    </g>
</svg>