<svg xmlns="http://www.w3.org/2000/svg" width="500" height="500" viewBox="0 0 500 500"><style>.a{fill:#777B83;}.b{fill:#383A3F;}.c{fill:#FFF;mix-blend-mode:overlay;opacity:0.2;}</style><g fill="none"><rect width="500" height="500" fill="#FFF"/><g transform="translate(82.715232 30)"><g transform="translate(0.644615 77.133251)" class="a"><polygon points="66.9 0.1 133.6 38.6 133.6 115.6 66.9 154.1 0.2 115.6 0.2 38.6"/><polygon points="66.9 77.1 133.6 115.6 133.6 192.6 66.9 231.1 0.2 192.6 0.2 115.6"/><polygon points="66.9 154.1 133.6 192.6 133.6 269.6 66.9 308.1 0.2 269.6 0.2 192.6"/></g><g transform="translate(276.629353 225.484323)" class="b"><polygon points="28.7 0 57.3 16.5 57.3 49.5 28.7 66 0.1 49.5 0.1 16.5"/><polygon points="28.7 33 57.3 49.5 57.3 82.5 28.7 99 0.1 82.5 0.1 49.5"/><polygon points="28.7 66 57.3 82.5 57.3 115.5 28.7 132 0.1 115.5 0.1 82.5"/></g><path d="M277.1 241.8L305.7 225.3 334.3 241.8 277.1 241.8ZM277.1 241.8L334.3 241.8 305.7 258.3 277.1 241.8Z" class="c"/><g transform="translate(209.962983 164.863503)" class="a"><polygon points="47.7 0.1 95.3 27.6 95.3 82.6 47.7 110.1 0.1 82.6 0.1 27.6"/><polygon points="47.7 55.1 95.3 82.6 95.3 137.6 47.7 165.1 0.1 137.6 0.1 82.6"/><polygon points="47.7 110.1 95.3 137.6 95.3 192.6 47.7 220.1 0.1 192.6 0.1 137.6"/></g><path d="M0.1 115.6L67.2 76.9 134.2 115.6 0.1 115.6ZM0.1 115.6L134.2 115.6 67.2 154.3 0.1 115.6Z" class="c"/><path d="M209.6 192.5L257.4 164.9 305.3 192.5 209.6 192.5ZM209.6 192.5L305.3 192.5 257.4 220.1 209.6 192.5Z" class="c"/><polygon points="162.4 0 257.7 55 257.7 165 162.4 220 67.2 165 67.2 55" class="b"/><polygon points="162.4 110 257.7 165 257.7 275 162.4 330 67.2 275 67.2 165" class="b"/><polygon points="162.4 220 257.7 275 257.7 385 162.4 440 67.2 385 67.2 275" class="b"/><path d="M67.2 55L162.4 0 257.7 55 67.2 55ZM67.2 55L257.7 55 162.4 110 67.2 55Z" class="c"/></g></g></svg>
