<?xml version="1.0" encoding="UTF-8"?>
<svg width="48px" height="47px" viewBox="0 0 48 47" version="1.1" xmlns="http://www.w3.org/2000/svg" xmlns:xlink="http://www.w3.org/1999/xlink" xmlns:sketch="http://www.bohemiancoding.com/sketch/ns">
    <!-- Generator: Sketch 3.5.1 (25234) - http://www.bohemiancoding.com/sketch -->
    <title>Slice 1</title>
    <desc>Created with Sketch.</desc>
    <defs></defs>
    <g id="Page-1" stroke="none" stroke-width="1" fill="none" fill-rule="evenodd" sketch:type="MSPage">
        <g id="github" sketch:type="MSLayerGroup" fill="#53565A">
            <g id="Icons" sketch:type="MSShapeGroup">
                <g id="Black">
                    <path d="M23.9985,0 C10.746,0 0,10.787092 0,24.096644 C0,34.740671 6.876,43.77183 16.4145,46.958412 C17.6145,47.179786 18.0525,46.435849 18.0525,45.797328 C18.0525,45.225068 18.0315,43.710086 18.0195,41.699648 C11.343,43.155898 9.9345,38.469394 9.9345,38.469394 C8.844,35.686405 7.2705,34.94548 7.2705,34.94548 C5.091,33.450075 7.4355,33.480194 7.4355,33.480194 C9.843,33.650366 11.1105,35.963499 11.1105,35.963499 C13.2525,39.645538 16.728,38.58234 18.096,37.964902 C18.3135,36.407754 18.9345,35.346062 19.62,34.743683 C14.2905,34.135281 8.688,32.069123 8.688,22.836167 C8.688,20.205279 9.6225,18.054788 11.1585,16.369634 C10.911,15.759726 10.0875,13.311058 11.3925,9.993458 C11.3925,9.993458 13.4085,9.345902 17.9925,12.46321 C19.908,11.928599 21.96,11.662047 24.0015,11.651505 C26.04,11.662047 28.0935,11.928599 30.0105,12.46321 C34.5915,9.345902 36.603,9.993458 36.603,9.993458 C37.9125,13.311058 37.089,15.759726 36.8415,16.369634 C38.3805,18.054788 39.309,20.205279 39.309,22.836167 C39.309,32.091712 33.6975,34.129257 28.3515,34.725612 C29.2125,35.469549 29.9805,36.939353 29.9805,39.18773 C29.9805,42.408949 29.9505,45.006706 29.9505,45.797328 C29.9505,46.441873 30.3825,47.191834 31.6005,46.9554 C41.13,43.762794 48,34.737659 48,24.096644 C48,10.787092 37.254,0 23.9985,0" id="Github"></path>
                </g>
            </g>
        </g>
    </g>
</svg>
